<svg width="20" height="21" viewBox="0 0 20 21" fill="none" xmlns="http://www.w3.org/2000/svg">
<path d="M17 14.5V16.5C17 17.0515 16.5515 17.5 16 17.5H4C3.4485 17.5 3 17.0515 3 16.5V14.5C3 14.224 3.224 14 3.5 14C3.776 14 4 14.224 4 14.5V16.5H16V14.5C16 14.224 16.224 14 16.5 14C16.776 14 17 14.224 17 14.5Z" fill="#4C5861"/>
<path d="M6.14662 10.8535C5.95112 10.658 5.95112 10.342 6.14662 10.1465C6.34212 9.951 6.65812 9.951 6.85362 10.1465L9.50012 12.793V4C9.50012 3.724 9.72412 3.5 10.0001 3.5C10.2761 3.5 10.5001 3.724 10.5001 4V12.793L13.1466 10.1465C13.3421 9.951 13.6581 9.951 13.8536 10.1465C14.0491 10.342 14.0491 10.658 13.8536 10.8535L10.3536 14.3535C10.1556 14.552 9.83812 14.5455 9.64612 14.3535L6.14662 10.8535Z" fill="#4C5861"/>
</svg>
